<?xml version="1.0" encoding="UTF-8" standalone="no"?>
<!-- Created with Inkscape (http://www.inkscape.org/) -->

<svg
   xmlns:dc="http://purl.org/dc/elements/1.1/"
   xmlns:cc="http://creativecommons.org/ns#"
   xmlns:rdf="http://www.w3.org/1999/02/22-rdf-syntax-ns#"
   xmlns:svg="http://www.w3.org/2000/svg"
   xmlns="http://www.w3.org/2000/svg"
   xmlns:sodipodi="http://sodipodi.sourceforge.net/DTD/sodipodi-0.dtd"
   xmlns:inkscape="http://www.inkscape.org/namespaces/inkscape"
   width="1000"
   height="194.95082"
   id="svg2"
   version="1.1"
   inkscape:version="0.48.4 r9939"
   sodipodi:docname="New document 1">
  <defs
     id="defs4" />
  <sodipodi:namedview
     id="base"
     pagecolor="#ffffff"
     bordercolor="#666666"
     borderopacity="1.0"
     inkscape:pageopacity="0.0"
     inkscape:pageshadow="2"
     inkscape:zoom="1.4"
     inkscape:cx="375"
     inkscape:cy="210.61638"
     inkscape:document-units="px"
     inkscape:current-layer="layer1"
     showgrid="false"
     fit-margin-top="0"
     fit-margin-left="0"
     fit-margin-right="0"
     fit-margin-bottom="0"
     inkscape:window-width="1920"
     inkscape:window-height="1018"
     inkscape:window-x="-8"
     inkscape:window-y="-8"
     inkscape:window-maximized="1" />
  <metadata
     id="metadata7">
    <rdf:RDF>
      <cc:Work
         rdf:about="">
        <dc:format>image/svg+xml</dc:format>
        <dc:type
           rdf:resource="http://purl.org/dc/dcmitype/StillImage" />
        <dc:title></dc:title>
      </cc:Work>
    </rdf:RDF>
  </metadata>
  <g
     inkscape:label="Layer 1"
     inkscape:groupmode="layer"
     id="layer1"
     transform="translate(0,-857.41138)">
    <path
       style="font-size:225.19441223px;font-style:normal;font-variant:normal;font-weight:normal;font-stretch:normal;line-height:125%;letter-spacing:0px;word-spacing:0px;fill:#000000;fill-opacity:1;stroke:none;font-family:Times New Roman;-inkscape-font-specification:Times New Roman"
       d="m 0,857.41138 0,3.99606 c 4.4485199,1.4e-4 7.7756399,0.33275 9.9621899,0.98316 4.4485201,1.37352 7.8187101,2.84998 10.1183801,4.44007 2.29963,1.59037 5.66982,4.87589 10.11836,9.86331 l 0,102.2485 c -3e-5,8.2404 -0.80841,13.5126 -2.46711,15.8256 -2.71437,3.7588 -7.36876,5.64542 -13.92837,5.64542 l -5.3090301,0 0,4.0277 53.3712201,0 0,-4.0277 -5.43391,0 c -5.95654,0 -10.34501,-1.49942 -13.21008,-4.53532 -2.03582,-2.2408 -3.06057,-7.9003 -3.06053,-16.9357 l 0,-90.51403 101.12116,118.39125 4.05986,0 0,-123.94134 c -1.4e-4,-8.24017 0.83943,-13.51248 2.49836,-15.82568 2.71415,-3.7586 7.2878,-5.6451 13.7722,-5.64524 l 5.43395,0 0,-3.99606 -53.37127,0 0,3.99606 5.30903,0 c 6.03176,1.4e-4 10.45147,1.53117 13.24133,4.56693 2.11103,2.24093 3.15403,7.86871 3.15416,16.90399 l 0,84.80542 -93.75095,-110.2724 -41.62895,0 z m 382.99865,15.06453 c -3.09136,7.30075 -5.47988,12.31789 -7.21401,15.06453 -3.39295,5.20452 -7.28199,9.71574 -11.61738,13.51051 -4.33541,3.79497 -8.56351,6.49714 -12.71041,8.08727 l 0,3.55206 16.39549,0 0,66.7914 c -2e-5,7.156 0.79006,12.4556 2.37344,15.889 1.58335,3.4335 4.05262,6.08552 7.37017,7.92882 3.31749,1.8432 6.71246,2.7591 10.18082,2.7591 5.12704,0 10.10216,-1.7817 14.9277,-5.3598 4.82543,-3.57802 8.54116,-8.93222 11.18017,-16.01592 l -4.40337,0 c -1.28183,2.8913 -3.09664,5.0831 -5.43393,6.5649 -2.3374,1.4818 -4.75715,2.2201 -7.24524,2.2201 -3.01598,0 -5.47878,-1.121 -7.4014,-3.3618 -1.9227,-2.2407 -2.87315,-6.5698 -2.87311,-13.0031 l 0,-64.4127 24.20286,0 0,-7.57984 -24.20286,0 0,-32.63453 -3.52894,0 z m -184.37898,29.58991 c -13.72255,10e-5 -25.11085,4.7665 -34.19631,14.27166 -9.0855,9.50534 -13.64733,22.75214 -13.64732,39.73864 -1e-5,15.68546 4.44448,28.16676 13.30377,37.45516 8.8593,9.28842 19.50703,13.92272 31.94781,13.92272 11.46046,0 20.99092,-4.0465 28.60623,-12.17842 7.61515,-8.1318 12.21995,-17.1499 13.80345,-27.0527 l -3.49771,-2.1883 c -3.39301,8.674 -7.60282,14.8166 -12.61673,18.3946 -5.01407,3.578 -10.92136,5.3597 -17.70713,5.3597 -10.17881,0 -19.03654,-4.1741 -26.5763,-12.559 -7.53988,-8.3848 -11.25561,-19.95016 -11.1802,-34.69596 l 71.57807,0 c -1e-4,-12.2881 -3.74708,-22.1262 -11.2114,-29.46306 -7.46455,-7.33667 -16.99496,-11.00494 -28.60623,-11.00504 z m 556.07256,0 c -13.72254,10e-5 -25.14209,4.7665 -34.22756,14.27166 -9.0855,9.50534 -13.61602,22.75214 -13.61601,39.73864 -10e-6,15.68546 4.41318,28.16676 13.27252,37.45516 8.85925,9.28842 19.50702,13.92272 31.94776,13.92272 11.46051,0 21.02217,-4.0465 28.63747,-12.17842 7.61515,-8.1318 12.18875,-17.1499 13.7722,-27.0527 l -3.4977,-2.1883 c -3.39301,8.674 -7.60282,14.8166 -12.61673,18.3946 -5.01407,3.578 -10.89012,5.3597 -17.67589,5.3597 -10.17881,0 -19.06774,-4.1741 -26.60754,-12.559 -7.53984,-8.3848 -11.25556,-19.95016 -11.18015,-34.69596 l 71.57801,0 c -10e-5,-12.2881 -3.71582,-22.1262 -11.18015,-29.46306 -7.4645,-7.33667 -16.99495,-11.00494 -28.60623,-11.00504 z m -307.0485,0.12686 -31.32319,12.14677 1.12426,3.90087 c 2.94052,-1.08414 5.56371,-1.64902 7.90106,-1.64912 1.96035,1e-4 3.61478,0.51048 4.93426,1.52232 1.31946,1.012 2.22686,2.6161 2.71697,4.8206 0.49007,2.2048 0.71826,9.1128 0.71828,20.6781 l 0,38.46996 c -2e-5,5.7827 -0.18516,9.3006 -0.56213,10.5293 -0.754,2.53 -2.04998,4.3619 -3.93492,5.5185 -2.56355,1.5902 -6.49565,2.41032 -11.77352,2.41032 l 0,3.9009 53.0277,0 0,-3.9009 c -4.67475,0 -8.25486,-0.66522 -10.74295,-1.96642 -2.48819,-1.3011 -4.20396,-2.9324 -5.1841,-4.884 -1.4326,-2.8191 -2.15487,-6.9704 -2.15484,-12.464 l 0,-47.60386 c 3.61908,-6.7945 7.13138,-11.6568 10.52435,-14.6205 1.58331,-1.44558 3.04614,-2.18827 4.40336,-2.18827 1.58331,0 4.02782,1.24857 7.3077,3.74227 3.27976,2.4939 6.23017,3.7424 8.86918,3.7424 2.71427,0 5.03498,-0.966 6.99541,-2.9177 1.96028,-1.9516 2.96672,-4.34846 2.9668,-7.16763 -8e-5,-3.18037 -1.3768,-5.98283 -4.09106,-8.40442 -2.71441,-2.42139 -6.12767,-3.61539 -10.27451,-3.61549 -9.12325,10e-5 -18.03047,7.43694 -26.70123,22.32724 l 0,-22.32724 -4.74688,0 z m 96.34303,0 c -8.59546,10e-5 -16.7309,2.13734 -24.42148,6.4381 -7.69065,4.30096 -13.90041,10.94944 -18.61278,19.94864 -4.71241,8.9994 -7.05788,18.0719 -7.05787,27.1796 -1e-5,12.50496 3.88256,23.76046 11.6486,33.80786 9.19857,11.92682 21.58685,17.88712 37.19437,17.88712 9.5755,0 18.27282,-2.2876 26.07663,-6.9137 7.80362,-4.62622 13.91435,-11.50692 18.36293,-20.61472 4.44841,-9.1076 6.68299,-18.09836 6.6831,-26.98926 -1.1e-4,-12.6494 -4.01826,-23.8593 -12.08581,-33.6176 -9.50028,-11.42073 -22.10494,-17.12594 -37.78769,-17.12604 z m 105.96173,0 c -12.0638,10e-5 -21.971,3.54079 -29.69925,10.62446 -7.72837,7.08388 -11.58622,15.54138 -11.5862,25.37178 -2e-5,6.4333 1.69747,12.289 5.09041,17.6018 3.39295,5.3128 8.25072,9.46856 14.58422,12.43216 -7.76608,6.2164 -12.71642,11.0012 -14.86527,14.3985 -2.14885,3.3973 -3.21667,6.3819 -3.21665,8.9119 -2e-5,2.2407 0.81483,4.2549 2.43592,6.0257 1.62106,1.771 4.3863,3.75342 8.30704,5.99422 -7.16283,7.156 -11.02715,11.0839 -11.55489,11.7344 -3.99612,4.7708 -6.61931,8.4892 -7.90106,11.1637 -0.8294,1.7348 -1.24922,3.4664 -1.24921,5.2012 -10e-6,3.9033 2.83957,7.6445 8.49443,11.2588 10.02796,6.2886 22.2989,9.4509 36.85083,9.4509 18.92487,0 34.27007,-5.2723 46.03227,-15.8256 7.99211,-7.1561 11.99201,-14.8253 11.99212,-22.9933 -1.1e-4,-5.9272 -2.09263,-10.9215 -6.27711,-14.96942 -4.1847,-4.0478 -9.78953,-6.5449 -16.80148,-7.4847 -4.59939,-0.6505 -14.66694,-1.1608 -30.19893,-1.5223 -8.44463,-0.2168 -13.72227,-0.4719 -15.83337,-0.7612 -3.61912,-0.5059 -6.03242,-1.3171 -7.27647,-2.4736 -1.24408,-1.1566 -1.87379,-2.355 -1.87376,-3.5838 -3e-5,-1.4457 0.58014,-3.2046 1.74883,-5.2647 1.16867,-2.0601 3.42802,-4.4525 6.74559,-7.1993 5.35327,1.4458 10.5813,2.1567 15.70845,2.1566 12.44068,10e-5 22.3414,-3.2855 29.73051,-9.86326 7.38893,-6.5777 11.08637,-14.502 11.08647,-23.7544 -10e-5,-8.0956 -2.08616,-14.7441 -6.30837,-19.9486 l 13.4599,0 c 3.24203,10e-5 5.11818,-0.1001 5.68376,-0.3171 0.56541,-0.2168 0.96044,-0.4948 1.18676,-0.85625 0.37687,-0.72279 0.59325,-2.02152 0.59336,-3.90097 -1.1e-4,-1.66243 -0.23479,-2.83799 -0.68709,-3.48863 -0.22627,-0.43361 -0.59659,-0.73893 -1.12423,-0.91973 -0.52791,-0.18062 -2.41053,-0.25363 -5.65256,-0.25372 l -21.95432,0 c -7.23834,-4.62604 -15.79355,-6.94544 -25.67065,-6.94554 z m 172.51175,0 -31.22947,12.14677 1.68639,3.90087 c 2.9405,-1.08414 5.47759,-1.64902 7.58876,-1.64912 1.96032,1e-4 3.51575,0.48754 4.68442,1.42712 1.16863,0.9398 2.05779,2.6943 2.62329,5.2964 0.56545,2.6023 0.84315,9.8931 0.84317,21.8198 l 0,36.85256 c -2e-5,7.2283 -0.93215,12.1179 -2.77942,14.6839 -1.84724,2.5661 -5.40263,3.86932 -10.68048,3.86932 l -2.27974,0 0,3.9009 51.24759,0 0,-3.9009 c -5.6549,0 -9.39541,-0.5148 -11.24259,-1.49062 -1.84733,-0.9758 -3.31661,-2.5024 -4.37216,-4.5986 -0.82939,-1.5903 -1.24921,-5.7417 -1.24917,-12.464 l 0,-52.36106 c 8.89695,-9.3968 17.85367,-14.11303 26.82616,-14.11312 5.8056,9e-5 9.91637,2.03705 12.36687,6.12102 2.45039,4.084 3.68499,10.6595 3.68507,19.6948 l 0,40.65836 c -8e-5,5.7104 -0.16691,9.0962 -0.46842,10.1805 -0.75409,2.7468 -2.07479,4.8382 -3.99738,6.2478 -1.92273,1.4095 -5.29293,2.12492 -10.11836,2.12492 l -2.15482,0 0,3.9009 51.21635,0 0,-3.9009 c -4.97638,0 -8.36488,-0.5104 -10.21201,-1.52232 -1.84738,-1.012 -3.19933,-2.4427 -4.02861,-4.2499 -1.05571,-2.2407 -1.5928,-6.4923 -1.5927,-12.781 l 0,-42.40266 c -10e-5,-8.9631 -0.80848,-15.6115 -2.46718,-19.9486 -2.41279,-6.21627 -5.67217,-10.67293 -9.74357,-13.38365 -4.07157,-2.71052 -8.9294,-4.05939 -14.58417,-4.05949 -11.00822,10e-5 -22.58813,7.00404 -34.72723,21.02684 l 0,-21.02684 -4.84059,0 z m 125.26158,0 c -11.98837,10e-5 -21.28415,2.59754 -27.91919,7.80184 -6.63509,5.2045 -9.9622,10.9097 -9.96219,17.126 -10e-6,3.2529 0.88262,5.8274 2.65448,7.7067 1.77183,1.8794 4.04953,2.8227 6.83929,2.8226 2.86509,10e-5 5.19229,-0.9203 6.96416,-2.7275 1.77181,-1.8069 2.65445,-4.3816 2.65448,-7.7066 l -0.21857,-6.2796 c -3e-5,-3.18035 1.44448,-5.97841 4.30968,-8.43613 2.78969,-2.45754 6.55493,-3.71054 11.30509,-3.71063 6.25798,9e-5 11.02318,1.86373 14.30307,5.55009 3.27979,3.68657 4.90295,10.45807 4.90302,20.36097 l 0,3.9009 c -17.79403,6.2164 -30.50952,11.5204 -38.16243,15.8574 -7.65292,4.337 -13.02313,8.9441 -16.11444,13.85936 -2.26193,3.5419 -3.37278,7.7477 -3.37277,12.5907 -10e-6,7.6621 2.29594,13.823 6.93297,18.5214 4.63694,4.69852 10.54424,7.07242 17.70713,7.07252 4.59926,-10e-5 8.91989,-0.9205 12.99147,-2.7276 2.71425,-1.2288 9.3869,-5.79012 20.01807,-13.66902 0.0754,5.9273 1.21741,10.13312 3.40402,12.59082 2.18652,2.4576 5.14338,3.6788 8.83798,3.6789 7.69053,-10e-5 15.75813,-5.4272 24.20286,-16.26972 l 0,-6.0575 c -4.52401,4.337 -7.5982,6.9573 -9.18147,7.897 -0.90488,0.506 -1.94792,0.7611 -3.1542,0.7611 -1.13104,0 -2.13101,-0.3554 -2.99803,-1.0783 -0.86716,-0.7228 -1.49687,-2.1491 -1.87376,-4.2814 -0.37707,-2.1324 -0.56219,-7.9423 -0.56211,-17.4115 l 0,-33.71276 c -8e-5,-9.6137 -0.67287,-15.9524 -2.02994,-19.06065 -2.11123,-4.77061 -5.38886,-8.28844 -9.83731,-10.52932 -5.88112,-2.96351 -13.44283,-4.43997 -22.64136,-4.44007 z m -709.65932,2.91776 0,4.02778 c 5.42868,-0.0722 9.20039,0.35629 11.27389,1.33202 2.07343,0.97593 3.6288,2.37936 4.68441,4.18636 1.05555,1.80713 1.59269,5.06982 1.59271,9.76822 l 0,44.33716 c -2e-5,9.2523 0.80835,16.4111 2.46712,21.471 1.65876,5.0598 4.6404,9.1838 8.90041,12.40042 4.26,3.2166 9.27813,4.8206 15.08383,4.8206 5.20244,0 10.1593,-1.1667 14.83404,-3.552 4.67462,-2.3853 11.46455,-8.22252 20.36161,-17.47482 l 0,21.02682 5.05922,0 31.01088,-12.24182 -1.5927,-3.8057 c -2.94065,1.2288 -5.56383,1.8394 -7.90107,1.8393 -1.65887,1e-4 -3.12816,-0.4786 -4.37213,-1.4905 -1.24417,-1.012 -2.15158,-2.8254 -2.71697,-5.3916 -0.56558,-2.566 -0.84328,-9.5972 -0.84318,-21.0902 l 0,-60.16304 -35.28934,0 0,4.02778 c 6.78577,0.14466 11.24851,1.18378 13.39746,3.17148 2.14873,1.98788 3.24775,5.81102 3.24783,11.44902 l 0,56.26206 c -5.65492,5.4935 -10.53746,9.2437 -14.64661,11.1953 -4.10927,1.9517 -7.81317,2.9178 -11.05527,2.9177 -4.75011,10e-5 -8.79309,-1.4535 -12.14825,-4.3449 -3.35528,-2.8912 -5.02801,-8.952 -5.02797,-18.2043 l 0,-66.47414 -36.31992,0 z m 409.94975,2.28347 c 6.03181,10e-5 10.98864,2.36522 14.83403,7.13583 5.20241,6.50558 7.80725,15.52798 7.80733,27.02108 -8e-5,8.8185 -1.86439,15.2893 -5.55884,19.4094 -3.69458,4.1202 -8.41675,6.18436 -14.14693,6.18436 -6.03193,0 -11.00704,-2.39686 -14.92772,-7.16756 -5.12714,-6.2885 -7.68248,-15.1561 -7.68245,-26.577 -3e-5,-8.8184 1.88258,-15.3349 5.65252,-19.59972 3.76985,-4.26462 8.44255,-6.40629 14.02206,-6.40639 z m -107.5232,1.83946 c 8.29374,9e-5 15.10198,3.46334 20.45536,10.40245 7.91668,10.1197 11.89834,24.0045 11.89843,41.6415 -9e-5,14.09536 -2.40154,24.02926 -7.15158,29.81186 -4.75014,5.7828 -10.7683,8.69 -18.08188,8.69 -9.80183,0 -17.70908,-5.2496 -23.7032,-15.7306 -5.99419,-10.4811 -8.99412,-22.96676 -8.99409,-37.42346 -3e-5,-8.9631 1.25936,-16.2996 3.74753,-22.0101 2.48811,-5.7103 5.74099,-9.67944 9.77484,-11.95646 4.03376,-2.27682 8.05844,-3.4251 12.05459,-3.42519 z m -348.209,0.53915 c 4.07145,9e-5 7.97879,1.14393 11.71108,3.45691 3.73217,2.31316 6.54696,5.49839 8.43197,9.54619 1.20631,2.6023 1.99638,7.0862 2.37344,13.4471 l -47.93731,0 c 0.82937,-8.3125 3.71196,-14.7789 8.6506,-19.44123 4.93856,-4.66219 10.51214,-7.00888 16.77022,-7.00897 z m 556.07257,0 c 4.07149,9e-5 7.97884,1.14393 11.71107,3.45691 3.73217,2.31316 6.51572,5.49839 8.40074,9.54619 1.2063,2.6023 1.99637,7.0862 2.37347,13.4471 l -47.9373,0 c 0.82937,-8.3125 3.71196,-14.7789 8.65054,-19.44123 4.93858,-4.66219 10.5434,-7.00888 16.80148,-7.00897 z m 215.20252,35.4572 0,37.83566 c -9.34942,7.2283 -16.87992,10.8465 -22.61011,10.8465 -4.22236,0 -7.93809,-1.7043 -11.18021,-5.1378 -3.24212,-3.4334 -4.87181,-7.767 -4.87178,-12.9713 -3e-5,-4.1202 1.27764,-7.916 3.84124,-11.38566 2.5635,-3.4695 6.81633,-6.7779 12.77286,-9.9584 3.31749,-1.807 10.66281,-4.892 22.048,-9.229 z M 627.2134,1004.4412 c 9.12317,1.2288 22.16587,2.0401 39.13058,2.4737 11.6112,0.2892 19.3764,1.2324 23.29721,2.8226 3.84519,1.5903 5.77735,4.2651 5.77745,8.0239 -10e-5,5.2044 -3.2347,10.0939 -9.68114,14.6839 -6.44666,4.59 -16.43996,6.8822 -30.01156,6.8822 -14.25035,0 -25.15752,-2.2103 -32.69729,-6.6918 -4.37316,-2.6022 -6.55824,-5.6643 -6.55822,-9.1339 -2e-5,-2.6746 0.90739,-5.6046 2.71698,-8.785 1.80953,-3.1805 4.48221,-6.5892 8.02599,-10.2756 z"
       id="text2996"
       inkscape:connector-curvature="0" />
  </g>
</svg>
